<mxfile host="Electron" modified="2023-05-19T09:03:05.338Z" agent="Mozilla/5.0 (X11; Linux x86_64) AppleWebKit/537.36 (KHTML, like Gecko) draw.io/21.2.8 Chrome/112.0.5615.165 Electron/24.2.0 Safari/537.36" etag="2bxs4o6Q3mgYg_XE78zu" version="21.2.8" type="device">
  <diagram id="KiB-AufaJ31jpKkaHcrA" name="Page-1">
    <mxGraphModel dx="4947" dy="4609" grid="1" gridSize="10" guides="1" tooltips="1" connect="1" arrows="1" fold="1" page="1" pageScale="1" pageWidth="850" pageHeight="1100" math="1" shadow="0">
      <root>
        <mxCell id="0" />
        <mxCell id="1" parent="0" />
        <mxCell id="b5SrjBkrjJ2mfJcDnyIW-4" value="" style="rounded=0;whiteSpace=wrap;html=1;fillColor=none;" parent="1" vertex="1">
          <mxGeometry x="-450" y="-2050" width="2150" height="1560" as="geometry" />
        </mxCell>
        <mxCell id="_1rtHh1eIbGesCGqBh3s-2" value="" style="endArrow=none;html=1;rounded=0;fontSize=41;strokeWidth=5;startArrow=none;entryX=0.596;entryY=0.471;entryDx=0;entryDy=0;entryPerimeter=0;exitX=0.459;exitY=0.543;exitDx=0;exitDy=0;exitPerimeter=0;dashed=1;" parent="1" source="sVk9f4SAbp3rtPKEbEiQ-135" target="BsvD2IoLm9uMeXV5dR5e-5" edge="1">
          <mxGeometry width="50" height="50" relative="1" as="geometry">
            <mxPoint x="210" y="-1070" as="sourcePoint" />
            <mxPoint x="266.6500000000001" y="-1240" as="targetPoint" />
          </mxGeometry>
        </mxCell>
        <mxCell id="BsvD2IoLm9uMeXV5dR5e-1" value="" style="endArrow=none;html=1;rounded=0;fontSize=41;strokeWidth=5;startArrow=none;exitX=0.35;exitY=-0.1;exitDx=0;exitDy=0;exitPerimeter=0;" parent="1" source="sVk9f4SAbp3rtPKEbEiQ-176" edge="1">
          <mxGeometry width="50" height="50" relative="1" as="geometry">
            <mxPoint x="210" y="-1070" as="sourcePoint" />
            <mxPoint x="411.5431372549019" y="-794" as="targetPoint" />
          </mxGeometry>
        </mxCell>
        <mxCell id="sVk9f4SAbp3rtPKEbEiQ-156" value="" style="endArrow=none;html=1;rounded=0;fontSize=41;strokeWidth=5;" parent="1" source="sVk9f4SAbp3rtPKEbEiQ-139" target="sVk9f4SAbp3rtPKEbEiQ-71" edge="1">
          <mxGeometry width="50" height="50" relative="1" as="geometry">
            <mxPoint x="945" y="-679.2700000000004" as="sourcePoint" />
            <mxPoint x="655" y="-710" as="targetPoint" />
            <Array as="points">
              <mxPoint x="690" y="-690" />
            </Array>
          </mxGeometry>
        </mxCell>
        <mxCell id="sVk9f4SAbp3rtPKEbEiQ-159" value="" style="endArrow=none;html=1;rounded=0;fontSize=41;strokeWidth=5;exitX=0.333;exitY=0.533;exitDx=0;exitDy=0;exitPerimeter=0;" parent="1" source="sVk9f4SAbp3rtPKEbEiQ-140" target="sVk9f4SAbp3rtPKEbEiQ-71" edge="1">
          <mxGeometry width="50" height="50" relative="1" as="geometry">
            <mxPoint x="975" y="-649.2700000000004" as="sourcePoint" />
            <mxPoint x="685" y="-680" as="targetPoint" />
            <Array as="points" />
          </mxGeometry>
        </mxCell>
        <mxCell id="sVk9f4SAbp3rtPKEbEiQ-120" value="" style="endArrow=none;html=1;rounded=0;fontSize=41;strokeWidth=5;startArrow=none;" parent="1" source="sVk9f4SAbp3rtPKEbEiQ-118" target="sVk9f4SAbp3rtPKEbEiQ-71" edge="1">
          <mxGeometry width="50" height="50" relative="1" as="geometry">
            <mxPoint x="200" y="-1080" as="sourcePoint" />
            <mxPoint x="-130" y="-1440" as="targetPoint" />
            <Array as="points">
              <mxPoint x="230" y="-960" />
            </Array>
          </mxGeometry>
        </mxCell>
        <mxCell id="sVk9f4SAbp3rtPKEbEiQ-64" value="&lt;font style=&quot;&quot;&gt;&lt;font style=&quot;font-size: 50px;&quot;&gt;Target&lt;/font&gt;&lt;br&gt;&lt;/font&gt;" style="ellipse;whiteSpace=wrap;html=1;aspect=fixed;fillColor=none;strokeWidth=1;" parent="1" vertex="1">
          <mxGeometry x="1130.73" y="-1970" width="320" height="320" as="geometry" />
        </mxCell>
        <mxCell id="sVk9f4SAbp3rtPKEbEiQ-65" value="" style="rounded=1;whiteSpace=wrap;html=1;rotation=-45;fillColor=#87CEEB;" parent="1" vertex="1">
          <mxGeometry x="1100" y="-1941.3400000000001" width="170.91" height="49.27" as="geometry" />
        </mxCell>
        <mxCell id="sVk9f4SAbp3rtPKEbEiQ-66" value="" style="rounded=1;whiteSpace=wrap;html=1;rotation=-45;fillColor=#87CEEB;strokeColor=#56517e;gradientColor=none;" parent="1" vertex="1">
          <mxGeometry x="1309.82" y="-1730" width="170.91" height="49.27" as="geometry" />
        </mxCell>
        <mxCell id="sVk9f4SAbp3rtPKEbEiQ-67" value="" style="group;rotation=15;fillColor=none;" parent="1" connectable="0" vertex="1">
          <mxGeometry x="236.6466655505108" y="-959.3533344494895" width="370.7058978173243" height="370.7058978173243" as="geometry" />
        </mxCell>
        <mxCell id="sVk9f4SAbp3rtPKEbEiQ-68" value="&lt;font style=&quot;font-size: 41px;&quot;&gt;&lt;br&gt;&lt;/font&gt;" style="ellipse;whiteSpace=wrap;html=1;aspect=fixed;fillColor=#87CEEB;strokeColor=#56517e;strokeWidth=1;rotation=25;" parent="sVk9f4SAbp3rtPKEbEiQ-67" vertex="1">
          <mxGeometry x="33.35" y="25.35" width="320" height="320" as="geometry" />
        </mxCell>
        <mxCell id="sVk9f4SAbp3rtPKEbEiQ-69" value="" style="rounded=1;whiteSpace=wrap;html=1;rotation=15;fillColor=#1dacd6;" parent="sVk9f4SAbp3rtPKEbEiQ-67" vertex="1">
          <mxGeometry x="140" y="14" width="170.91" height="49.27" as="geometry" />
        </mxCell>
        <mxCell id="sVk9f4SAbp3rtPKEbEiQ-70" value="" style="rounded=1;whiteSpace=wrap;html=1;rotation=15;fillColor=#1dacd6;strokeColor=#56517e;gradientColor=none;" parent="sVk9f4SAbp3rtPKEbEiQ-67" vertex="1">
          <mxGeometry x="63" y="303" width="170.91" height="49.27" as="geometry" />
        </mxCell>
        <mxCell id="sVk9f4SAbp3rtPKEbEiQ-71" value="&lt;font style=&quot;font-size: 50px;&quot;&gt;Start&lt;/font&gt;" style="text;html=1;align=center;verticalAlign=middle;resizable=0;points=[];autosize=1;strokeColor=none;fillColor=none;fontSize=41;" parent="1" vertex="1">
          <mxGeometry x="358.45" y="-809" width="130" height="70" as="geometry" />
        </mxCell>
        <mxCell id="sVk9f4SAbp3rtPKEbEiQ-72" value="&lt;font style=&quot;font-size: 50px;&quot;&gt;Unmovable&lt;br&gt;Object&lt;/font&gt;" style="rounded=1;whiteSpace=wrap;html=1;strokeWidth=2;fillColor=#FF9933;" parent="1" vertex="1">
          <mxGeometry x="1160" y="-1520" width="390" height="940" as="geometry" />
        </mxCell>
        <mxCell id="sVk9f4SAbp3rtPKEbEiQ-113" value="&lt;font style=&quot;font-size: 50px;&quot;&gt;Movable&lt;br&gt;Object&lt;/font&gt;" style="ellipse;whiteSpace=wrap;html=1;aspect=fixed;fillColor=#fff2cc;strokeColor=#d6b656;" parent="1" vertex="1">
          <mxGeometry x="720" y="-1500" width="380" height="380" as="geometry" />
        </mxCell>
        <mxCell id="sVk9f4SAbp3rtPKEbEiQ-128" value="" style="endArrow=none;html=1;rounded=0;fontSize=41;entryX=0.45;entryY=0.6;entryDx=0;entryDy=0;entryPerimeter=0;strokeWidth=5;" parent="1" source="sVk9f4SAbp3rtPKEbEiQ-137" target="sVk9f4SAbp3rtPKEbEiQ-144" edge="1">
          <mxGeometry width="50" height="50" relative="1" as="geometry">
            <mxPoint x="510" y="-1860" as="sourcePoint" />
            <mxPoint x="390" y="-1744.63" as="targetPoint" />
          </mxGeometry>
        </mxCell>
        <mxCell id="sVk9f4SAbp3rtPKEbEiQ-130" value="" style="endArrow=none;html=1;rounded=0;fontSize=41;strokeWidth=5;" parent="1" target="sVk9f4SAbp3rtPKEbEiQ-118" edge="1">
          <mxGeometry width="50" height="50" relative="1" as="geometry">
            <mxPoint x="200" y="-1080" as="sourcePoint" />
            <mxPoint x="401.5431372549019" y="-804" as="targetPoint" />
          </mxGeometry>
        </mxCell>
        <mxCell id="sVk9f4SAbp3rtPKEbEiQ-118" value="" style="shape=waypoint;sketch=0;fillStyle=solid;size=6;pointerEvents=1;points=[];fillColor=none;resizable=0;rotatable=0;perimeter=centerPerimeter;snapToPoint=1;fontSize=41;strokeColor=#000000;strokeWidth=10;" parent="1" vertex="1">
          <mxGeometry x="180" y="-1100" width="40" height="40" as="geometry" />
        </mxCell>
        <mxCell id="sVk9f4SAbp3rtPKEbEiQ-132" value="" style="shape=waypoint;sketch=0;fillStyle=solid;size=6;pointerEvents=1;points=[];fillColor=none;resizable=0;rotatable=0;perimeter=centerPerimeter;snapToPoint=1;fontSize=41;strokeColor=#000000;strokeWidth=10;" parent="1" vertex="1">
          <mxGeometry x="-110" y="-980" width="40" height="40" as="geometry" />
        </mxCell>
        <mxCell id="sVk9f4SAbp3rtPKEbEiQ-133" value="" style="shape=waypoint;sketch=0;fillStyle=solid;size=6;pointerEvents=1;points=[];fillColor=none;resizable=0;rotatable=0;perimeter=centerPerimeter;snapToPoint=1;fontSize=41;strokeColor=#000000;strokeWidth=10;" parent="1" vertex="1">
          <mxGeometry x="40" y="-999.35" width="40" height="40" as="geometry" />
        </mxCell>
        <mxCell id="sVk9f4SAbp3rtPKEbEiQ-136" value="" style="shape=waypoint;sketch=0;fillStyle=solid;size=6;pointerEvents=1;points=[];fillColor=none;resizable=0;rotatable=0;perimeter=centerPerimeter;snapToPoint=1;fontSize=41;strokeColor=#000000;strokeWidth=10;" parent="1" vertex="1">
          <mxGeometry x="950" y="-1740" width="40" height="40" as="geometry" />
        </mxCell>
        <mxCell id="sVk9f4SAbp3rtPKEbEiQ-137" value="" style="shape=waypoint;sketch=0;fillStyle=solid;size=6;pointerEvents=1;points=[];fillColor=none;resizable=0;rotatable=0;perimeter=centerPerimeter;snapToPoint=1;fontSize=41;strokeColor=#000000;strokeWidth=10;" parent="1" vertex="1">
          <mxGeometry x="1600" y="-1981.34" width="40" height="40" as="geometry" />
        </mxCell>
        <mxCell id="sVk9f4SAbp3rtPKEbEiQ-139" value="" style="shape=waypoint;sketch=0;fillStyle=solid;size=6;pointerEvents=1;points=[];fillColor=none;resizable=0;rotatable=0;perimeter=centerPerimeter;snapToPoint=1;fontSize=41;strokeColor=#000000;strokeWidth=10;" parent="1" vertex="1">
          <mxGeometry x="770" y="-616.83" width="40" height="40" as="geometry" />
        </mxCell>
        <mxCell id="sVk9f4SAbp3rtPKEbEiQ-140" value="" style="shape=waypoint;sketch=0;fillStyle=solid;size=6;pointerEvents=1;points=[];fillColor=none;resizable=0;rotatable=0;perimeter=centerPerimeter;snapToPoint=1;fontSize=41;strokeColor=#000000;strokeWidth=10;" parent="1" vertex="1">
          <mxGeometry x="680" y="-870" width="40" height="40" as="geometry" />
        </mxCell>
        <mxCell id="sVk9f4SAbp3rtPKEbEiQ-141" value="" style="shape=waypoint;sketch=0;fillStyle=solid;size=6;pointerEvents=1;points=[];fillColor=none;resizable=0;rotatable=0;perimeter=centerPerimeter;snapToPoint=1;fontSize=41;strokeColor=#000000;strokeWidth=10;" parent="1" vertex="1">
          <mxGeometry x="1050" y="-560" width="40" height="40" as="geometry" />
        </mxCell>
        <mxCell id="sVk9f4SAbp3rtPKEbEiQ-142" value="" style="shape=waypoint;sketch=0;fillStyle=solid;size=6;pointerEvents=1;points=[];fillColor=none;resizable=0;rotatable=0;perimeter=centerPerimeter;snapToPoint=1;fontSize=41;strokeColor=#000000;strokeWidth=10;" parent="1" vertex="1">
          <mxGeometry x="930" y="-616.83" width="40" height="40" as="geometry" />
        </mxCell>
        <mxCell id="sVk9f4SAbp3rtPKEbEiQ-143" value="" style="shape=waypoint;sketch=0;fillStyle=solid;size=6;pointerEvents=1;points=[];fillColor=none;resizable=0;rotatable=0;perimeter=centerPerimeter;snapToPoint=1;fontSize=41;strokeColor=#000000;strokeWidth=10;" parent="1" vertex="1">
          <mxGeometry x="1120" y="-1620" width="40" height="40" as="geometry" />
        </mxCell>
        <mxCell id="sVk9f4SAbp3rtPKEbEiQ-144" value="" style="shape=waypoint;sketch=0;fillStyle=solid;size=6;pointerEvents=1;points=[];fillColor=none;resizable=0;rotatable=0;perimeter=centerPerimeter;snapToPoint=1;fontSize=41;strokeColor=#000000;strokeWidth=10;" parent="1" vertex="1">
          <mxGeometry x="1470" y="-1950" width="40" height="40" as="geometry" />
        </mxCell>
        <mxCell id="sVk9f4SAbp3rtPKEbEiQ-145" value="" style="shape=waypoint;sketch=0;fillStyle=solid;size=6;pointerEvents=1;points=[];fillColor=none;resizable=0;rotatable=0;perimeter=centerPerimeter;snapToPoint=1;fontSize=41;strokeColor=#000000;strokeWidth=10;" parent="1" vertex="1">
          <mxGeometry x="1000" y="-1420" width="40" height="40" as="geometry" />
        </mxCell>
        <mxCell id="sVk9f4SAbp3rtPKEbEiQ-146" value="" style="shape=waypoint;sketch=0;fillStyle=solid;size=6;pointerEvents=1;points=[];fillColor=none;resizable=0;rotatable=0;perimeter=centerPerimeter;snapToPoint=1;fontSize=41;strokeColor=#000000;strokeWidth=10;" parent="1" vertex="1">
          <mxGeometry x="1000" y="-1560" width="40" height="40" as="geometry" />
        </mxCell>
        <mxCell id="sVk9f4SAbp3rtPKEbEiQ-147" value="" style="shape=waypoint;sketch=0;fillStyle=solid;size=6;pointerEvents=1;points=[];fillColor=none;resizable=0;rotatable=0;perimeter=centerPerimeter;snapToPoint=1;fontSize=41;strokeColor=#000000;strokeWidth=10;" parent="1" vertex="1">
          <mxGeometry x="180" y="-1380" width="40" height="40" as="geometry" />
        </mxCell>
        <mxCell id="sVk9f4SAbp3rtPKEbEiQ-148" value="" style="endArrow=none;html=1;rounded=0;fontSize=41;strokeWidth=5;startArrow=none;exitX=0;exitY=0.05;exitDx=0;exitDy=0;exitPerimeter=0;" parent="1" source="sVk9f4SAbp3rtPKEbEiQ-143" target="sVk9f4SAbp3rtPKEbEiQ-64" edge="1">
          <mxGeometry width="50" height="50" relative="1" as="geometry">
            <mxPoint x="210" y="-1070" as="sourcePoint" />
            <mxPoint x="411.5431372549019" y="-794" as="targetPoint" />
          </mxGeometry>
        </mxCell>
        <mxCell id="sVk9f4SAbp3rtPKEbEiQ-152" value="" style="endArrow=none;html=1;rounded=0;fontSize=41;entryX=0.678;entryY=0.385;entryDx=0;entryDy=0;entryPerimeter=0;strokeWidth=5;exitX=0.428;exitY=0.503;exitDx=0;exitDy=0;exitPerimeter=0;" parent="1" source="sVk9f4SAbp3rtPKEbEiQ-143" target="sVk9f4SAbp3rtPKEbEiQ-146" edge="1">
          <mxGeometry width="50" height="50" relative="1" as="geometry">
            <mxPoint x="880" y="-1819.2700000000002" as="sourcePoint" />
            <mxPoint x="590" y="-1850.0000000000002" as="targetPoint" />
            <Array as="points" />
          </mxGeometry>
        </mxCell>
        <mxCell id="sVk9f4SAbp3rtPKEbEiQ-153" value="" style="endArrow=none;html=1;rounded=0;fontSize=41;strokeWidth=5;startArrow=none;" parent="1" source="sVk9f4SAbp3rtPKEbEiQ-138" edge="1">
          <mxGeometry width="50" height="50" relative="1" as="geometry">
            <mxPoint x="890" y="-1809.2700000000002" as="sourcePoint" />
            <mxPoint x="840" y="-1820" as="targetPoint" />
            <Array as="points">
              <mxPoint x="840" y="-1820" />
            </Array>
          </mxGeometry>
        </mxCell>
        <mxCell id="sVk9f4SAbp3rtPKEbEiQ-154" value="" style="endArrow=none;html=1;rounded=0;fontSize=41;strokeWidth=5;" parent="1" source="sVk9f4SAbp3rtPKEbEiQ-144" target="sVk9f4SAbp3rtPKEbEiQ-64" edge="1">
          <mxGeometry width="50" height="50" relative="1" as="geometry">
            <mxPoint x="900" y="-1799.2700000000002" as="sourcePoint" />
            <mxPoint x="610" y="-1830.0000000000002" as="targetPoint" />
            <Array as="points" />
          </mxGeometry>
        </mxCell>
        <mxCell id="sVk9f4SAbp3rtPKEbEiQ-155" value="" style="endArrow=none;html=1;rounded=0;fontSize=41;entryX=0.604;entryY=0.492;entryDx=0;entryDy=0;entryPerimeter=0;strokeWidth=5;" parent="1" source="sVk9f4SAbp3rtPKEbEiQ-64" target="sVk9f4SAbp3rtPKEbEiQ-136" edge="1">
          <mxGeometry width="50" height="50" relative="1" as="geometry">
            <mxPoint x="910" y="-1789.2700000000002" as="sourcePoint" />
            <mxPoint x="620" y="-1820.0000000000002" as="targetPoint" />
            <Array as="points" />
          </mxGeometry>
        </mxCell>
        <mxCell id="sVk9f4SAbp3rtPKEbEiQ-157" value="" style="endArrow=none;html=1;rounded=0;fontSize=41;strokeWidth=5;" parent="1" source="sVk9f4SAbp3rtPKEbEiQ-142" target="sVk9f4SAbp3rtPKEbEiQ-139" edge="1">
          <mxGeometry width="50" height="50" relative="1" as="geometry">
            <mxPoint x="955" y="-669.2700000000004" as="sourcePoint" />
            <mxPoint x="665" y="-700" as="targetPoint" />
            <Array as="points" />
          </mxGeometry>
        </mxCell>
        <mxCell id="sVk9f4SAbp3rtPKEbEiQ-160" value="" style="endArrow=none;html=1;rounded=0;fontSize=41;entryX=0.458;entryY=0.783;entryDx=0;entryDy=0;entryPerimeter=0;strokeWidth=5;" parent="1" source="sVk9f4SAbp3rtPKEbEiQ-141" target="sVk9f4SAbp3rtPKEbEiQ-142" edge="1">
          <mxGeometry width="50" height="50" relative="1" as="geometry">
            <mxPoint x="985" y="-639.2700000000004" as="sourcePoint" />
            <mxPoint x="695" y="-670" as="targetPoint" />
            <Array as="points" />
          </mxGeometry>
        </mxCell>
        <mxCell id="sVk9f4SAbp3rtPKEbEiQ-161" value="" style="endArrow=none;html=1;rounded=0;fontSize=41;entryX=0.825;entryY=1.136;entryDx=0;entryDy=0;entryPerimeter=0;strokeWidth=5;exitX=0.575;exitY=1.207;exitDx=0;exitDy=0;exitPerimeter=0;" parent="1" source="sVk9f4SAbp3rtPKEbEiQ-146" target="sVk9f4SAbp3rtPKEbEiQ-145" edge="1">
          <mxGeometry width="50" height="50" relative="1" as="geometry">
            <mxPoint x="995" y="-629.2700000000004" as="sourcePoint" />
            <mxPoint x="705" y="-660" as="targetPoint" />
            <Array as="points" />
          </mxGeometry>
        </mxCell>
        <mxCell id="sVk9f4SAbp3rtPKEbEiQ-162" value="" style="endArrow=none;html=1;rounded=0;fontSize=41;strokeWidth=5;startArrow=none;exitX=0.552;exitY=0.627;exitDx=0;exitDy=0;exitPerimeter=0;" parent="1" source="sVk9f4SAbp3rtPKEbEiQ-132" target="sVk9f4SAbp3rtPKEbEiQ-133" edge="1">
          <mxGeometry width="50" height="50" relative="1" as="geometry">
            <mxPoint x="-200" y="-950" as="sourcePoint" />
            <mxPoint x="411.5431372549019" y="-794.0000000000005" as="targetPoint" />
          </mxGeometry>
        </mxCell>
        <mxCell id="sVk9f4SAbp3rtPKEbEiQ-163" value="" style="endArrow=none;html=1;rounded=0;fontSize=41;strokeWidth=5;startArrow=none;" parent="1" source="sVk9f4SAbp3rtPKEbEiQ-133" target="sVk9f4SAbp3rtPKEbEiQ-118" edge="1">
          <mxGeometry width="50" height="50" relative="1" as="geometry">
            <mxPoint x="220" y="-1060" as="sourcePoint" />
            <mxPoint x="421.5431372549019" y="-784.0000000000005" as="targetPoint" />
          </mxGeometry>
        </mxCell>
        <mxCell id="sVk9f4SAbp3rtPKEbEiQ-164" value="" style="endArrow=none;html=1;rounded=0;fontSize=41;strokeWidth=5;startArrow=none;entryX=0.484;entryY=0.57;entryDx=0;entryDy=0;entryPerimeter=0;" parent="1" source="sVk9f4SAbp3rtPKEbEiQ-118" target="sVk9f4SAbp3rtPKEbEiQ-135" edge="1">
          <mxGeometry width="50" height="50" relative="1" as="geometry">
            <mxPoint x="230" y="-1050" as="sourcePoint" />
            <mxPoint x="270" y="-1240" as="targetPoint" />
          </mxGeometry>
        </mxCell>
        <mxCell id="sVk9f4SAbp3rtPKEbEiQ-165" value="" style="endArrow=none;html=1;rounded=0;fontSize=41;strokeWidth=5;startArrow=none;exitDx=0;exitDy=0;exitPerimeter=0;" parent="1" source="sVk9f4SAbp3rtPKEbEiQ-135" edge="1">
          <mxGeometry width="50" height="50" relative="1" as="geometry">
            <mxPoint x="240" y="-1040" as="sourcePoint" />
            <mxPoint x="260" y="-1240" as="targetPoint" />
          </mxGeometry>
        </mxCell>
        <mxCell id="sVk9f4SAbp3rtPKEbEiQ-167" value="" style="endArrow=none;html=1;rounded=0;fontSize=41;strokeWidth=5;startArrow=none;" parent="1" target="sVk9f4SAbp3rtPKEbEiQ-135" edge="1">
          <mxGeometry width="50" height="50" relative="1" as="geometry">
            <mxPoint x="200" y="-1360" as="sourcePoint" />
            <mxPoint x="260" y="-1240" as="targetPoint" />
          </mxGeometry>
        </mxCell>
        <mxCell id="sVk9f4SAbp3rtPKEbEiQ-135" value="" style="shape=waypoint;sketch=0;fillStyle=solid;size=6;pointerEvents=1;points=[];fillColor=none;resizable=0;rotatable=0;perimeter=centerPerimeter;snapToPoint=1;fontSize=41;strokeColor=#000000;strokeWidth=10;" parent="1" vertex="1">
          <mxGeometry x="236.65" y="-1270" width="40" height="40" as="geometry" />
        </mxCell>
        <mxCell id="sVk9f4SAbp3rtPKEbEiQ-168" value="" style="endArrow=none;html=1;rounded=0;fontSize=41;strokeWidth=5;" parent="1" source="sVk9f4SAbp3rtPKEbEiQ-136" target="sVk9f4SAbp3rtPKEbEiQ-138" edge="1">
          <mxGeometry width="50" height="50" relative="1" as="geometry">
            <mxPoint x="940" y="-1700.73" as="sourcePoint" />
            <mxPoint x="850" y="-1790" as="targetPoint" />
            <Array as="points" />
          </mxGeometry>
        </mxCell>
        <mxCell id="sVk9f4SAbp3rtPKEbEiQ-138" value="" style="shape=waypoint;sketch=0;fillStyle=solid;size=6;pointerEvents=1;points=[];fillColor=none;resizable=0;rotatable=0;perimeter=centerPerimeter;snapToPoint=1;fontSize=41;strokeColor=#000000;strokeWidth=10;" parent="1" vertex="1">
          <mxGeometry x="820" y="-1840" width="40" height="40" as="geometry" />
        </mxCell>
        <mxCell id="sVk9f4SAbp3rtPKEbEiQ-170" value="&lt;div style=&quot;text-align: center;&quot;&gt;&lt;span style=&quot;font-size: 73px;&quot;&gt;connect to parent node&amp;nbsp;&lt;/span&gt;&lt;/div&gt;" style="text;whiteSpace=wrap;html=1;fontSize=41;" parent="1" vertex="1">
          <mxGeometry x="-180" y="-1855" width="880" height="70" as="geometry" />
        </mxCell>
        <mxCell id="sVk9f4SAbp3rtPKEbEiQ-172" value="" style="shape=waypoint;sketch=0;fillStyle=solid;size=6;pointerEvents=1;points=[];fillColor=none;resizable=0;rotatable=0;perimeter=centerPerimeter;snapToPoint=1;fontSize=41;strokeColor=#000000;strokeWidth=10;" parent="1" vertex="1">
          <mxGeometry x="780" y="-999.35" width="40" height="40" as="geometry" />
        </mxCell>
        <mxCell id="sVk9f4SAbp3rtPKEbEiQ-175" value="" style="shape=waypoint;sketch=0;fillStyle=solid;size=6;pointerEvents=1;points=[];fillColor=none;resizable=0;rotatable=0;perimeter=centerPerimeter;snapToPoint=1;fontSize=41;strokeColor=#000000;strokeWidth=10;" parent="1" vertex="1">
          <mxGeometry x="940" y="-990" width="40" height="40" as="geometry" />
        </mxCell>
        <mxCell id="sVk9f4SAbp3rtPKEbEiQ-176" value="" style="shape=waypoint;sketch=0;fillStyle=solid;size=6;pointerEvents=1;points=[];fillColor=none;resizable=0;rotatable=0;perimeter=centerPerimeter;snapToPoint=1;fontSize=41;strokeColor=#000000;strokeWidth=10;" parent="1" vertex="1">
          <mxGeometry x="160" y="-760" width="40" height="40" as="geometry" />
        </mxCell>
        <mxCell id="sVk9f4SAbp3rtPKEbEiQ-177" value="" style="shape=waypoint;sketch=0;fillStyle=solid;size=6;pointerEvents=1;points=[];fillColor=none;resizable=0;rotatable=0;perimeter=centerPerimeter;snapToPoint=1;fontSize=41;strokeColor=#000000;strokeWidth=10;" parent="1" vertex="1">
          <mxGeometry x="730" y="-1110" width="40" height="40" as="geometry" />
        </mxCell>
        <mxCell id="sVk9f4SAbp3rtPKEbEiQ-178" value="" style="shape=waypoint;sketch=0;fillStyle=solid;size=6;pointerEvents=1;points=[];fillColor=none;resizable=0;rotatable=0;perimeter=centerPerimeter;snapToPoint=1;fontSize=41;strokeColor=#000000;strokeWidth=10;" parent="1" vertex="1">
          <mxGeometry x="770" y="-1230" width="40" height="40" as="geometry" />
        </mxCell>
        <mxCell id="sVk9f4SAbp3rtPKEbEiQ-179" value="" style="shape=waypoint;sketch=0;fillStyle=solid;size=6;pointerEvents=1;points=[];fillColor=none;resizable=0;rotatable=0;perimeter=centerPerimeter;snapToPoint=1;fontSize=41;strokeColor=#000000;strokeWidth=10;" parent="1" vertex="1">
          <mxGeometry x="403.45" y="-1370" width="40" height="40" as="geometry" />
        </mxCell>
        <mxCell id="sVk9f4SAbp3rtPKEbEiQ-180" value="" style="shape=waypoint;sketch=0;fillStyle=solid;size=6;pointerEvents=1;points=[];fillColor=none;resizable=0;rotatable=0;perimeter=centerPerimeter;snapToPoint=1;fontSize=41;strokeColor=#000000;strokeWidth=10;" parent="1" vertex="1">
          <mxGeometry x="530" y="-1360" width="40" height="40" as="geometry" />
        </mxCell>
        <mxCell id="sVk9f4SAbp3rtPKEbEiQ-181" value="" style="endArrow=none;html=1;rounded=0;fontSize=41;strokeWidth=5;exitX=0.667;exitY=0.559;exitDx=0;exitDy=0;exitPerimeter=0;entryX=0.625;entryY=0.617;entryDx=0;entryDy=0;entryPerimeter=0;" parent="1" source="sVk9f4SAbp3rtPKEbEiQ-172" target="sVk9f4SAbp3rtPKEbEiQ-140" edge="1">
          <mxGeometry width="50" height="50" relative="1" as="geometry">
            <mxPoint x="710" y="-840" as="sourcePoint" />
            <mxPoint x="488.4499999999998" y="-779.1148074489242" as="targetPoint" />
            <Array as="points" />
          </mxGeometry>
        </mxCell>
        <mxCell id="sVk9f4SAbp3rtPKEbEiQ-182" value="" style="endArrow=none;html=1;rounded=0;fontSize=41;strokeWidth=5;exitX=0.375;exitY=0.45;exitDx=0;exitDy=0;exitPerimeter=0;" parent="1" source="sVk9f4SAbp3rtPKEbEiQ-175" edge="1">
          <mxGeometry width="50" height="50" relative="1" as="geometry">
            <mxPoint x="720" y="-830" as="sourcePoint" />
            <mxPoint x="800" y="-980" as="targetPoint" />
            <Array as="points" />
          </mxGeometry>
        </mxCell>
        <mxCell id="sVk9f4SAbp3rtPKEbEiQ-183" value="" style="endArrow=none;html=1;rounded=0;fontSize=41;strokeWidth=5;" parent="1" source="sVk9f4SAbp3rtPKEbEiQ-177" target="sVk9f4SAbp3rtPKEbEiQ-140" edge="1">
          <mxGeometry width="50" height="50" relative="1" as="geometry">
            <mxPoint x="730" y="-820" as="sourcePoint" />
            <mxPoint x="508.4499999999998" y="-759.1148074489242" as="targetPoint" />
            <Array as="points">
              <mxPoint x="700" y="-980" />
            </Array>
          </mxGeometry>
        </mxCell>
        <mxCell id="sVk9f4SAbp3rtPKEbEiQ-184" value="" style="endArrow=none;html=1;rounded=0;fontSize=41;strokeWidth=5;exitX=0.458;exitY=0.7;exitDx=0;exitDy=0;exitPerimeter=0;entryX=0.5;entryY=0.45;entryDx=0;entryDy=0;entryPerimeter=0;" parent="1" source="sVk9f4SAbp3rtPKEbEiQ-178" target="sVk9f4SAbp3rtPKEbEiQ-177" edge="1">
          <mxGeometry width="50" height="50" relative="1" as="geometry">
            <mxPoint x="740" y="-810" as="sourcePoint" />
            <mxPoint x="518.4499999999998" y="-749.1148074489242" as="targetPoint" />
            <Array as="points" />
          </mxGeometry>
        </mxCell>
        <mxCell id="sVk9f4SAbp3rtPKEbEiQ-185" value="" style="endArrow=none;html=1;rounded=0;fontSize=41;strokeWidth=5;exitX=0.375;exitY=0.7;exitDx=0;exitDy=0;exitPerimeter=0;" parent="1" source="sVk9f4SAbp3rtPKEbEiQ-180" target="sVk9f4SAbp3rtPKEbEiQ-178" edge="1">
          <mxGeometry width="50" height="50" relative="1" as="geometry">
            <mxPoint x="750" y="-800" as="sourcePoint" />
            <mxPoint x="528.4499999999998" y="-739.1148074489242" as="targetPoint" />
            <Array as="points">
              <mxPoint x="660" y="-1240" />
            </Array>
          </mxGeometry>
        </mxCell>
        <mxCell id="sVk9f4SAbp3rtPKEbEiQ-186" value="" style="endArrow=none;html=1;rounded=0;fontSize=41;strokeWidth=5;exitX=0.58;exitY=0.742;exitDx=0;exitDy=0;exitPerimeter=0;" parent="1" source="sVk9f4SAbp3rtPKEbEiQ-179" target="sVk9f4SAbp3rtPKEbEiQ-180" edge="1">
          <mxGeometry width="50" height="50" relative="1" as="geometry">
            <mxPoint x="760" y="-790" as="sourcePoint" />
            <mxPoint x="590" y="-930" as="targetPoint" />
            <Array as="points" />
          </mxGeometry>
        </mxCell>
        <mxCell id="BsvD2IoLm9uMeXV5dR5e-5" value="" style="shape=waypoint;sketch=0;fillStyle=solid;size=6;pointerEvents=1;points=[];fillColor=none;resizable=0;rotatable=0;perimeter=centerPerimeter;snapToPoint=1;fontSize=41;strokeColor=#000000;strokeWidth=10;" parent="1" vertex="1">
          <mxGeometry x="249.99999999999997" y="-1510" width="40" height="40" as="geometry" />
        </mxCell>
        <mxCell id="BsvD2IoLm9uMeXV5dR5e-12" value="" style="rounded=0;whiteSpace=wrap;html=1;fillColor=#d3e7c1;strokeColor=#56517e;opacity=60;" parent="1" vertex="1">
          <mxGeometry x="20" y="-1740" width="500" height="500" as="geometry" />
        </mxCell>
        <mxCell id="BsvD2IoLm9uMeXV5dR5e-15" value="" style="endArrow=classic;startArrow=classic;html=1;strokeWidth=5;fontColor=#000000;curved=1;" parent="1" edge="1">
          <mxGeometry width="50" height="50" relative="1" as="geometry">
            <mxPoint x="-30" y="-1240" as="sourcePoint" />
            <mxPoint x="-30" y="-1740" as="targetPoint" />
          </mxGeometry>
        </mxCell>
        <mxCell id="BsvD2IoLm9uMeXV5dR5e-16" value="&lt;div style=&quot;text-align: center;&quot;&gt;&lt;span style=&quot;font-size: 73px;&quot;&gt;search size&lt;/span&gt;&lt;/div&gt;" style="text;whiteSpace=wrap;html=1;fontSize=41;" parent="1" vertex="1">
          <mxGeometry x="-410" y="-1570" width="880" height="70" as="geometry" />
        </mxCell>
        <mxCell id="5gAJjaMAu2HOLX-QjGtd-4" value="" style="shape=waypoint;sketch=0;fillStyle=solid;size=6;pointerEvents=1;points=[];fillColor=none;resizable=0;rotatable=0;perimeter=centerPerimeter;snapToPoint=1;fontSize=41;strokeColor=#000000;strokeWidth=10;" parent="1" vertex="1">
          <mxGeometry x="210" y="-980" width="40" height="40" as="geometry" />
        </mxCell>
        <mxCell id="5gAJjaMAu2HOLX-QjGtd-5" value="" style="shape=waypoint;sketch=0;fillStyle=solid;size=6;pointerEvents=1;points=[];fillColor=none;resizable=0;rotatable=0;perimeter=centerPerimeter;snapToPoint=1;fontSize=41;strokeColor=#000000;strokeWidth=10;" parent="1" vertex="1">
          <mxGeometry x="670" y="-710" width="40" height="40" as="geometry" />
        </mxCell>
        <mxCell id="5gAJjaMAu2HOLX-QjGtd-6" value="" style="shape=waypoint;sketch=0;fillStyle=solid;size=6;pointerEvents=1;points=[];fillColor=none;resizable=0;rotatable=0;perimeter=centerPerimeter;snapToPoint=1;fontSize=41;strokeColor=#000000;strokeWidth=10;" parent="1" vertex="1">
          <mxGeometry x="680" y="-999.35" width="40" height="40" as="geometry" />
        </mxCell>
        <mxCell id="5gAJjaMAu2HOLX-QjGtd-7" value="" style="shape=waypoint;sketch=0;fillStyle=solid;size=6;pointerEvents=1;points=[];fillColor=none;resizable=0;rotatable=0;perimeter=centerPerimeter;snapToPoint=1;fontSize=41;strokeColor=#000000;strokeWidth=10;" parent="1" vertex="1">
          <mxGeometry x="640" y="-1260" width="40" height="40" as="geometry" />
        </mxCell>
        <mxCell id="b5SrjBkrjJ2mfJcDnyIW-7" value="" style="endArrow=none;html=1;rounded=0;fontSize=41;strokeWidth=5;entryX=0.481;entryY=0.625;entryDx=0;entryDy=0;entryPerimeter=0;strokeColor=#000000;" parent="1" edge="1">
          <mxGeometry width="50" height="50" relative="1" as="geometry">
            <mxPoint x="650" y="-1790" as="sourcePoint" />
            <mxPoint x="840" y="-1820" as="targetPoint" />
          </mxGeometry>
        </mxCell>
        <mxCell id="b5SrjBkrjJ2mfJcDnyIW-8" value="" style="endArrow=none;html=1;rounded=0;fontSize=41;strokeWidth=5;strokeColor=#000000;" parent="1" edge="1">
          <mxGeometry width="50" height="50" relative="1" as="geometry">
            <mxPoint x="460" y="-1690" as="sourcePoint" />
            <mxPoint x="650" y="-1790.0000000000002" as="targetPoint" />
          </mxGeometry>
        </mxCell>
        <mxCell id="b5SrjBkrjJ2mfJcDnyIW-9" value="" style="shape=waypoint;sketch=0;fillStyle=solid;size=6;pointerEvents=1;points=[];fillColor=none;resizable=0;rotatable=0;perimeter=centerPerimeter;snapToPoint=1;fontSize=41;strokeColor=#000000;strokeWidth=10;" parent="1" vertex="1">
          <mxGeometry x="630" y="-1810" width="40" height="40" as="geometry" />
        </mxCell>
        <mxCell id="b5SrjBkrjJ2mfJcDnyIW-10" value="" style="shape=waypoint;sketch=0;fillStyle=solid;size=6;pointerEvents=1;points=[];fillColor=none;resizable=0;rotatable=0;perimeter=centerPerimeter;snapToPoint=1;fontSize=41;strokeColor=#000000;strokeWidth=10;" parent="1" vertex="1">
          <mxGeometry x="440" y="-1710" width="40" height="40" as="geometry" />
        </mxCell>
      </root>
    </mxGraphModel>
  </diagram>
</mxfile>
